# Blender 4.5.0
# www.blender.org
o dish_control
v -0.343750 2.422562 -1.576503
v -0.343750 1.675416 -1.558011
v -0.406250 2.422562 -1.576503
v -0.406250 1.675416 -1.558011
v -0.218750 2.235776 -1.560161
v -0.218750 1.613154 -1.552563
v -0.281250 2.235776 -1.560161
v -0.281250 1.613154 -1.552563
v -0.343750 2.422562 -1.576503
v -0.343750 1.675416 -1.558011
v -0.406250 2.422562 -1.576503
v -0.406250 1.675416 -1.558011
v -0.218750 2.235776 -1.560161
v -0.218750 1.613154 -1.552563
v -0.281250 2.235776 -1.560161
v -0.281250 1.613154 -1.552563
v -0.218750 1.615878 -1.521432
v -0.218750 1.610430 -1.583694
v -0.218750 1.491353 -1.510538
v -0.218750 1.485906 -1.572800
v -0.281250 1.615878 -1.521432
v -0.281250 1.610430 -1.583694
v -0.281250 1.491353 -1.510538
v -0.281250 1.485906 -1.572800
v -0.343750 1.678140 -1.526880
v -0.343750 1.672693 -1.589142
v -0.343750 1.491353 -1.510538
v -0.343750 1.485906 -1.572800
v -0.406250 1.678140 -1.526880
v -0.406250 1.672693 -1.589142
v -0.406250 1.491353 -1.510538
v -0.406250 1.485906 -1.572800
v -0.093750 1.572681 -1.298067
v -0.093750 1.550892 -1.547116
v -0.093750 1.136846 -1.259937
v -0.093750 1.115057 -1.508986
v -0.468750 1.572681 -1.298067
v -0.468750 1.550892 -1.547116
v -0.468750 1.136846 -1.259937
v -0.468750 1.115057 -1.508986
v -0.093750 1.318185 -1.338541
v -0.093750 1.193661 -1.327646
v -0.093750 1.301843 -1.525327
v -0.093750 1.177319 -1.514433
v -0.468750 1.301843 -1.525327
v -0.468750 1.177319 -1.514433
v -0.468750 1.318185 -1.338541
v -0.468750 1.193661 -1.327646
v -0.156250 1.318185 -1.338541
v -0.156250 1.193661 -1.327646
v -0.156250 1.307290 -1.463065
v -0.156250 1.182766 -1.452171
v -0.406250 1.307290 -1.463065
v -0.406250 1.182766 -1.452171
v -0.406250 1.318185 -1.338541
v -0.406250 1.193661 -1.327646
v 0.625000 0.750000 0.312500
v 0.625000 0.750000 -1.250000
v 0.625000 0.500000 0.312500
v 0.625000 0.500000 -1.250000
v 0.125000 0.750000 0.312500
v 0.125000 0.750000 -1.250000
v 0.125000 0.500000 0.312500
v 0.125000 0.500000 -1.250000
v 0.125000 0.750000 -0.375000
v 0.625000 0.500000 -0.375000
v 0.625000 0.750000 0.187500
v 0.250000 0.750000 0.187500
v 0.625000 0.687500 0.187500
v 0.625000 0.687500 -0.375000
v 0.250000 0.687500 0.187500
v 0.250000 0.687500 -0.375000
v 0.625000 0.750000 -0.375000
v 0.250000 0.750000 -0.375000
v 0.531250 0.796875 -0.562500
v 0.531250 0.796875 -0.687500
v 0.531250 0.750000 -0.562500
v 0.531250 0.750000 -0.687500
v 0.406250 0.796875 -0.562500
v 0.406250 0.796875 -0.687500
v 0.406250 0.750000 -0.562500
v 0.406250 0.750000 -0.687500
v 0.531250 0.796875 -0.750000
v 0.531250 0.796875 -0.875000
v 0.531250 0.750000 -0.750000
v 0.531250 0.750000 -0.875000
v 0.406250 0.796875 -0.750000
v 0.406250 0.796875 -0.875000
v 0.406250 0.750000 -0.750000
v 0.406250 0.750000 -0.875000
v 0.562500 0.796875 -0.937500
v 0.562500 0.796875 -1.125000
v 0.562500 0.750000 -0.937500
v 0.562500 0.750000 -1.125000
v 0.375000 0.796875 -0.937500
v 0.375000 0.796875 -1.125000
v 0.375000 0.750000 -0.937500
v 0.375000 0.750000 -1.125000
v 0.531250 0.796875 -0.968750
v 0.531250 0.796875 -1.093750
v 0.406250 0.796875 -0.968750
v 0.406250 0.796875 -1.093750
v 0.531250 0.765625 -0.968750
v 0.531250 0.765625 -1.093750
v 0.406250 0.765625 -0.968750
v 0.406250 0.765625 -1.093750
v 0.515625 0.765625 -0.984375
v 0.515625 0.765625 -1.078125
v 0.421875 0.765625 -0.984375
v 0.421875 0.765625 -1.078125
v 0.515625 0.812500 -0.984375
v 0.515625 0.812500 -1.078125
v 0.421875 0.812500 -0.984375
v 0.421875 0.812500 -1.078125
v 0.343750 0.781250 -0.468750
v 0.343750 0.781250 -0.656250
v 0.343750 0.750000 -0.468750
v 0.343750 0.750000 -0.656250
v 0.156250 0.812500 -0.468750
v 0.156250 0.812500 -0.656250
v 0.156250 0.750000 -0.468750
v 0.156250 0.750000 -0.656250
v 0.031250 1.687500 0.375000
v 0.031250 1.687500 -0.562500
v 0.031250 1.000000 0.375000
v 0.031250 1.000000 -0.562500
v -0.281250 1.687500 0.375000
v -0.281250 1.687500 -0.562500
v -0.281250 1.000000 0.375000
v -0.281250 1.000000 -0.562500
v -0.281250 1.625000 0.312500
v -0.281250 1.625000 -0.500000
v -0.281250 1.062500 0.312500
v -0.281250 1.062500 -0.500000
v -0.406250 1.625000 0.312500
v -0.406250 1.625000 -0.500000
v -0.406250 1.062500 0.312500
v -0.406250 1.062500 -0.500000
v 0.031250 1.687500 -0.625000
v 0.031250 1.687500 -1.437500
v 0.031250 1.000000 -0.625000
v 0.031250 1.000000 -1.437500
v -0.281250 1.687500 -0.625000
v -0.281250 1.687500 -1.437500
v -0.281250 1.000000 -0.625000
v -0.281250 1.000000 -1.437500
v -0.281250 1.625000 -0.687500
v -0.281250 1.625000 -1.375000
v -0.281250 1.062500 -0.687500
v -0.281250 1.062500 -1.375000
v -0.406250 1.625000 -0.687500
v -0.406250 1.625000 -1.375000
v -0.406250 1.062500 -0.687500
v -0.406250 1.062500 -1.375000
v 0.500000 0.625000 0.500000
v 0.500000 0.625000 -1.500000
v 0.500000 0.000000 0.500000
v 0.500000 -0.000000 -1.500000
v -0.500000 0.625000 0.500000
v -0.500000 0.625000 -1.500000
v -0.500000 0.000000 0.500000
v -0.500000 -0.000000 -1.500000
v 0.125000 1.000000 0.500000
v 0.125000 1.000000 -1.500000
v -0.500000 1.000000 0.500000
v -0.500000 1.000000 -1.500000
v 0.125000 1.000000 0.312500
v 0.500000 0.625000 0.312500
v 0.125000 1.000000 -1.250000
v 0.500000 0.625000 -1.250000
v 0.125000 0.625000 -1.250000
v 0.125000 0.625000 0.312500
v 0.235485 1.025741 -0.687500
v 0.235485 1.025741 -1.187500
v 0.316366 0.723890 -0.687500
v 0.316366 0.723889 -1.187500
v 0.054374 0.977213 -0.687500
v 0.054374 0.977213 -1.187500
v 0.135255 0.675361 -0.687500
v 0.135255 0.675361 -1.187500
v 0.093750 1.562500 -1.187500
v 0.093750 1.562500 -1.375000
v 0.093750 1.062500 -1.187500
v 0.093750 1.062500 -1.375000
v 0.031250 1.562500 -1.187500
v 0.031250 1.562500 -1.375000
v 0.031250 1.062500 -1.187500
v 0.031250 1.062500 -1.375000
v 0.093750 2.000000 0.500000
v 0.093750 2.000000 -1.500000
v 0.093750 1.625000 0.500000
v 0.093750 1.625000 -1.500000
v -0.531250 2.000000 0.500000
v -0.531250 2.000000 -1.500000
v -0.531250 1.625000 0.500000
v -0.531250 1.625000 -1.500000
vn -0.0000 0.0247 0.9997
vn -0.0000 0.0122 0.9999
vn -0.0000 -0.0247 -0.9997
vn -0.0000 -0.0122 -0.9999
vn 1.0000 -0.0000 -0.0000
vn -1.0000 -0.0000 -0.0000
vn -0.0000 0.9962 -0.0872
vn -0.0000 -0.9962 0.0872
vn -0.0000 0.0872 0.9962
vn -0.0000 -0.0872 -0.9962
vn -0.0000 1.0000 -0.0000
vn -0.0000 -0.0000 1.0000
vn -0.0000 -0.0000 -1.0000
vn -0.0000 -1.0000 -0.0000
vn 0.1644 0.9864 -0.0000
vn 0.7071 0.7071 -0.0000
vn 0.9659 0.2588 -0.0000
vn -0.2588 0.9659 -0.0000
vt 0.984848 0.398305
vt 0.984848 0.500000
vt 0.969697 0.500000
vt 0.969697 0.398305
vt 0.969697 0.389830
vt 0.969697 0.474576
vt 0.954545 0.474576
vt 0.954545 0.389830
vt 0.954545 0.372881
vt 0.969697 0.372881
vt 0.954545 0.381356
vt 0.969697 0.381356
vt 0.984848 0.372881
vt 0.984848 0.389830
vt 0.984848 0.381356
vt 0.863636 0.338983
vt 0.833333 0.338983
vt 0.833333 0.322034
vt 0.863636 0.322034
vt 0.954545 0.322034
vt 0.954545 0.338983
vt 0.924242 0.338983
vt 0.924242 0.322034
vt 0.939394 0.406780
vt 0.848485 0.406780
vt 0.848485 0.372881
vt 0.939394 0.372881
vt 0.848485 0.313559
vt 0.848485 0.279661
vt 0.939394 0.279661
vt 0.939394 0.313559
vt 0.848485 0.220339
vt 0.939394 0.220339
vt 0.803030 0.338983
vt 0.848485 0.338983
vt 0.787879 0.372881
vt 0.803030 0.322034
vt 0.787879 0.313559
vt 0.848485 0.322034
vt 0.939394 0.338983
vt 0.939394 0.322034
vt 0.984848 0.338983
vt 0.984848 0.322034
vt 1.000000 0.313559
vt 1.000000 0.372881
vt 0.848485 0.347458
vt 0.803030 0.347458
vt 0.787879 0.338983
vt 0.787879 0.322034
vt 0.803030 0.313559
vt 0.939394 0.347458
vt 1.000000 0.322034
vt 1.000000 0.338983
vt 0.984848 0.347458
vt 0.984848 0.313559
vt 0.530303 0.050847
vt 0.318182 0.050847
vt 0.318182 0.016949
vt 0.530303 0.016949
vt 0.530303 0.118644
vt 0.318182 0.118644
vt 0.151515 0.016949
vt 0.151515 0.050847
vt 0.030303 0.050847
vt 0.030303 0.016949
vt 0.651515 0.050847
vt 0.651515 0.016949
vt 0.151515 -0.050847
vt 0.530303 -0.050847
vt 0.181818 0.101695
vt 0.318182 0.101695
vt 0.151515 0.118644
vt 0.181818 0.050847
vt 0.181818 0.042373
vt 0.181818 0.110169
vt 0.318182 0.110169
vt 0.166667 0.101695
vt 0.166667 0.050847
vt 0.318182 0.042373
vt 0.333333 0.050847
vt 0.333333 0.101695
vt 0.136364 0.322034
vt 0.106061 0.322034
vt 0.106061 0.313559
vt 0.136364 0.313559
vt 0.106061 0.330508
vt 0.136364 0.330508
vt 0.121212 0.313559
vt 0.121212 0.330508
vt 0.045455 0.322034
vt 0.000000 0.322034
vt 0.000000 0.313559
vt 0.045455 0.313559
vt 0.075758 0.322034
vt 0.106061 0.338983
vt 0.075758 0.338983
vt 0.037879 0.326271
vt 0.007576 0.326271
vt 0.037879 0.343220
vt 0.045455 0.347458
vt 0.007576 0.343220
vt 0.000000 0.347458
vt 0.037879 0.330508
vt 0.007576 0.330508
vt 0.030303 0.343220
vt 0.030303 0.326271
vt 0.007576 0.338983
vt 0.037879 0.338983
vt 0.015152 0.326271
vt 0.015152 0.343220
vt 0.071970 0.315678
vt 0.049242 0.315678
vt 0.075758 0.313559
vt 0.071970 0.328390
vt 0.075758 0.330508
vt 0.049242 0.328390
vt 0.045455 0.330508
vt 0.151515 0.364407
vt 0.106061 0.364407
vt 0.106061 0.355932
vt 0.151515 0.355932
vt 0.060606 0.355932
vt 0.060606 0.364407
vt 0.015152 0.364407
vt 0.015152 0.355932
vt 0.106061 0.389830
vt 0.151515 0.389830
vt 0.530303 0.593220
vt 0.303030 0.593220
vt 0.303030 0.500000
vt 0.530303 0.500000
vt 0.227273 0.406780
vt 0.227273 0.483051
vt 0.030303 0.483051
vt 0.030303 0.406780
vt 0.227273 0.593220
vt 0.227273 0.500000
vt 0.212121 0.584746
vt 0.212121 0.508475
vt 0.015152 0.584746
vt 0.000000 0.593220
vt 0.015152 0.508475
vt 0.000000 0.500000
vt 0.257576 0.406780
vt 0.257576 0.483051
vt 0.030303 0.500000
vt 0.000000 0.483051
vt 0.000000 0.406780
vt 0.030303 0.389830
vt 0.227273 0.389830
vt 1.000000 0.593220
vt 0.803030 0.593220
vt 0.803030 0.500000
vt 1.000000 0.500000
vt 0.712121 0.406780
vt 0.712121 0.483051
vt 0.545455 0.483051
vt 0.545455 0.406780
vt 0.727273 0.593220
vt 0.727273 0.500000
vt 0.712121 0.584746
vt 0.712121 0.508475
vt 0.545455 0.584746
vt 0.545455 0.508475
vt 0.742424 0.406780
vt 0.742424 0.483051
vt 0.712121 0.500000
vt 0.545455 0.500000
vt 0.515152 0.483051
vt 0.515152 0.406780
vt 0.545455 0.389830
vt 0.712121 0.389830
vt 0.727273 0.677966
vt 0.484848 0.677966
vt 0.484848 0.593220
vt 0.969697 0.677966
vt 0.969697 0.593220
vt 0.636364 0.728814
vt 0.484848 0.728814
vt 0.000000 0.677966
vt 0.045455 0.677966
vt 0.045455 0.728814
vt 0.000000 0.728814
vt 0.969697 0.728814
vt 0.818182 0.728814
vt 0.424242 0.728814
vt 0.424242 0.677966
vt 0.000000 0.864407
vt 0.484848 0.864407
vt 0.484848 1.000000
vt 0.000000 1.000000
vt 0.484848 0.779661
vt 0.969697 0.779661
vt 0.969697 0.864407
vt 0.666667 0.915254
vt 0.575758 0.864407
vt 0.666667 0.864407
vt 0.484848 0.915254
vt 0.863636 0.906780
vt 0.742424 0.906780
vt 0.742424 0.864407
vt 0.863636 0.864407
vt 0.742424 0.932203
vt 0.863636 0.932203
vt 0.696970 0.906780
vt 0.696970 0.864407
vt 0.909091 0.906780
vt 0.909091 0.864407
vt 0.984848 0.576271
vt 0.939394 0.576271
vt 0.939394 0.508475
vt 0.984848 0.508475
vt 0.939394 0.567797
vt 0.984848 0.567797
vt 0.984848 0.516949
vt 0.939394 0.516949
vt 0.954545 0.508475
vt 0.954545 0.576271
vt 0.969697 0.576271
vt 0.969697 0.508475
vt 0.636364 0.305085
vt 0.151515 0.305085
vt 0.151515 0.254237
vt 0.636364 0.254237
vt 0.151515 0.169492
vt 0.636364 0.118644
vt 0.636364 0.169492
vt 0.636364 0.389830
vt 0.000000 0.305085
vt 0.000000 0.254237
vt 0.787879 0.305085
vt 0.787879 0.254237
s 1
usemtl m_0df88bea-0692-09af-b275-4ad7dae3b6df
f 2/1/1 1/2/1 3/3/1
f 2/1/1 3/3/1 4/4/1
f 6/5/2 5/6/2 7/7/2
f 6/5/2 7/7/2 8/8/2
f 11/3/3 9/2/3 10/1/3
f 11/3/3 10/1/3 12/4/3
f 15/7/4 13/6/4 14/5/4
f 15/7/4 14/5/4 16/8/4
f 18/5/5 17/8/5 19/9/5
f 18/5/5 19/9/5 20/10/5
f 23/10/6 21/5/6 22/8/6
f 23/10/6 22/8/6 24/9/6
f 21/11/7 17/12/7 18/5/7
f 21/11/7 18/5/7 22/8/7
f 20/10/8 19/12/8 23/11/8
f 20/10/8 23/11/8 24/9/8
f 19/10/9 17/5/9 21/8/9
f 19/10/9 21/8/9 23/9/9
f 22/5/10 18/8/10 20/9/10
f 22/5/10 20/9/10 24/10/10
f 26/1/5 25/4/5 27/10/5
f 26/1/5 27/10/5 28/13/5
f 31/13/6 29/1/6 30/4/6
f 31/13/6 30/4/6 32/10/6
f 29/5/7 25/14/7 26/1/7
f 29/5/7 26/1/7 30/4/7
f 28/13/8 27/15/8 31/12/8
f 28/13/8 31/12/8 32/10/8
f 27/13/9 25/1/9 29/4/9
f 27/13/9 29/4/9 31/10/9
f 30/1/10 26/4/10 28/10/10
f 30/1/10 28/10/10 32/13/10
f 51/16/5 49/17/5 50/18/5
f 51/16/5 50/18/5 52/19/5
f 56/20/6 55/21/6 53/22/6
f 56/20/6 53/22/6 54/23/6
f 37/24/7 33/25/7 34/26/7
f 37/24/7 34/26/7 38/27/7
f 36/28/8 35/29/8 39/30/8
f 36/28/8 39/30/8 40/31/8
f 35/29/9 33/32/9 37/33/9
f 35/29/9 37/33/9 39/30/9
f 53/22/10 51/16/10 52/19/10
f 53/22/10 52/19/10 54/23/10
f 41/34/5 43/35/5 34/26/5
f 41/34/5 34/26/5 33/36/5
f 42/37/5 41/34/5 33/36/5
f 42/37/5 33/36/5 35/38/5
f 44/39/5 42/37/5 35/38/5
f 44/39/5 35/38/5 36/28/5
f 43/35/10 45/40/10 38/27/10
f 43/35/10 38/27/10 34/26/10
f 46/41/10 44/39/10 36/28/10
f 46/41/10 36/28/10 40/31/10
f 47/42/6 48/43/6 39/44/6
f 47/42/6 39/44/6 37/45/6
f 45/40/6 47/42/6 37/45/6
f 45/40/6 37/45/6 38/27/6
f 48/43/6 46/41/6 40/31/6
f 48/43/6 40/31/6 39/44/6
f 49/34/8 51/17/8 43/46/8
f 49/34/8 43/46/8 41/47/8
f 50/37/10 49/34/10 41/48/10
f 50/37/10 41/48/10 42/49/10
f 52/18/7 50/37/7 42/50/7
f 52/18/7 42/50/7 44/28/7
f 51/16/8 53/22/8 45/51/8
f 51/16/8 45/51/8 43/46/8
f 54/23/7 52/19/7 44/28/7
f 54/23/7 44/28/7 46/31/7
f 55/42/10 56/43/10 48/52/10
f 55/42/10 48/52/10 47/53/10
f 53/21/8 55/42/8 47/54/8
f 53/21/8 47/54/8 45/51/8
f 56/43/7 54/20/7 46/31/7
f 56/43/7 46/31/7 48/55/7
f 58/56/5 73/57/5 66/58/5
f 58/56/5 66/58/5 60/59/5
f 62/60/11 65/61/11 73/57/11
f 62/60/11 73/57/11 58/56/11
f 59/62/12 57/63/12 61/64/12
f 59/62/12 61/64/12 63/65/12
f 62/66/13 58/56/13 60/59/13
f 62/66/13 60/59/13 64/67/13
f 60/59/14 59/62/14 63/68/14
f 60/59/14 63/68/14 64/69/14
f 68/70/11 74/71/11 65/61/11
f 68/70/11 65/61/11 61/72/11
f 67/73/11 68/70/11 61/72/11
f 67/73/11 61/72/11 57/63/11
f 69/74/5 67/73/5 57/63/5
f 69/74/5 57/63/5 59/62/5
f 68/75/5 71/70/5 72/71/5
f 68/75/5 72/71/5 74/76/5
f 70/57/11 72/71/11 71/70/11
f 70/57/11 71/70/11 69/73/11
f 71/70/13 68/77/13 67/78/13
f 71/70/13 67/78/13 69/73/13
f 70/79/5 69/74/5 59/62/5
f 70/79/5 59/62/5 66/58/5
f 70/57/12 73/80/12 74/81/12
f 70/57/12 74/81/12 72/71/12
f 76/82/5 75/83/5 77/84/5
f 76/82/5 77/84/5 78/85/5
f 81/86/6 79/83/6 80/82/6
f 81/86/6 80/82/6 82/87/6
f 79/86/11 75/84/11 76/85/11
f 79/86/11 76/85/11 80/87/11
f 77/84/12 75/88/12 79/89/12
f 77/84/12 79/89/12 81/86/12
f 80/89/13 76/88/13 78/85/13
f 80/89/13 78/85/13 82/87/13
f 84/82/5 83/83/5 85/84/5
f 84/82/5 85/84/5 86/85/5
f 89/86/6 87/83/6 88/82/6
f 89/86/6 88/82/6 90/87/6
f 87/86/11 83/84/11 84/85/11
f 87/86/11 84/85/11 88/87/11
f 85/84/12 83/88/12 87/89/12
f 85/84/12 87/89/12 89/86/12
f 88/89/13 84/88/13 86/85/13
f 88/89/13 86/85/13 90/87/13
f 92/90/5 91/91/5 93/92/5
f 92/90/5 93/92/5 94/93/5
f 97/93/6 95/90/6 96/91/6
f 97/93/6 96/91/6 98/92/6
f 113/94/11 111/83/11 112/95/11
f 113/94/11 112/95/11 114/96/11
f 93/93/12 91/90/12 95/91/12
f 93/93/12 95/91/12 97/92/12
f 96/90/13 92/91/13 94/92/13
f 96/90/13 94/92/13 98/93/13
f 99/97/11 101/98/11 95/91/11
f 99/97/11 95/91/11 91/90/11
f 100/99/11 99/97/11 91/90/11
f 100/99/11 91/90/11 92/100/11
f 102/101/11 100/99/11 92/100/11
f 102/101/11 92/100/11 96/102/11
f 101/98/11 102/101/11 96/102/11
f 101/98/11 96/102/11 95/91/11
f 103/98/13 105/97/13 101/103/13
f 103/98/13 101/103/13 99/104/13
f 104/105/6 103/106/6 99/97/6
f 104/105/6 99/97/6 100/99/6
f 106/107/12 104/108/12 100/99/12
f 106/107/12 100/99/12 102/101/12
f 105/109/5 106/110/5 102/101/5
f 105/109/5 102/101/5 101/98/5
f 107/111/11 109/112/11 105/93/11
f 107/111/11 105/93/11 103/113/11
f 108/114/11 107/111/11 103/113/11
f 108/114/11 103/113/11 104/115/11
f 110/116/11 108/114/11 104/115/11
f 110/116/11 104/115/11 106/117/11
f 109/112/11 110/116/11 106/117/11
f 109/112/11 106/117/11 105/93/11
f 111/83/12 113/94/12 109/113/12
f 111/83/12 109/113/12 107/84/12
f 112/94/5 111/83/5 107/84/5
f 112/94/5 107/84/5 108/113/5
f 114/83/13 112/94/13 108/113/13
f 114/83/13 108/113/13 110/84/13
f 113/94/6 114/83/6 110/84/6
f 113/94/6 110/84/6 109/113/6
f 116/118/5 115/119/5 117/120/5
f 116/118/5 117/120/5 118/121/5
f 121/122/6 119/123/6 120/124/6
f 121/122/6 120/124/6 122/125/6
f 119/126/15 115/119/15 116/118/15
f 119/126/15 116/118/15 120/127/15
f 117/120/12 115/120/12 119/123/12
f 117/120/12 119/123/12 121/122/12
f 120/123/13 116/120/13 118/120/13
f 120/123/13 118/120/13 122/122/13
f 124/128/5 123/129/5 125/130/5
f 124/128/5 125/130/5 126/131/5
f 137/132/6 135/133/6 136/134/6
f 137/132/6 136/134/6 138/135/6
f 125/130/12 123/129/12 127/136/12
f 125/130/12 127/136/12 129/137/12
f 128/136/13 124/129/13 126/130/13
f 128/136/13 126/130/13 130/137/13
f 131/138/6 133/139/6 129/137/6
f 131/138/6 129/137/6 127/136/6
f 132/140/6 131/138/6 127/136/6
f 132/140/6 127/136/6 128/141/6
f 134/142/6 132/140/6 128/141/6
f 134/142/6 128/141/6 130/143/6
f 133/139/6 134/142/6 130/143/6
f 133/139/6 130/143/6 129/137/6
f 135/133/12 137/132/12 133/144/12
f 135/133/12 133/144/12 131/145/12
f 136/134/11 135/133/11 131/137/11
f 136/134/11 131/137/11 132/146/11
f 138/135/13 136/134/13 132/147/13
f 138/135/13 132/147/13 134/148/13
f 137/132/14 138/135/14 134/149/14
f 137/132/14 134/149/14 133/150/14
f 140/151/5 139/152/5 141/153/5
f 140/151/5 141/153/5 142/154/5
f 153/155/6 151/156/6 152/157/6
f 153/155/6 152/157/6 154/158/6
f 141/153/12 139/152/12 143/159/12
f 141/153/12 143/159/12 145/160/12
f 144/159/13 140/152/13 142/153/13
f 144/159/13 142/153/13 146/160/13
f 147/161/6 149/162/6 145/160/6
f 147/161/6 145/160/6 143/159/6
f 148/163/6 147/161/6 143/159/6
f 148/163/6 143/159/6 144/128/6
f 150/164/6 148/163/6 144/128/6
f 150/164/6 144/128/6 146/131/6
f 149/162/6 150/164/6 146/131/6
f 149/162/6 146/131/6 145/160/6
f 151/156/12 153/155/12 149/165/12
f 151/156/12 149/165/12 147/166/12
f 152/157/11 151/156/11 147/167/11
f 152/157/11 147/167/11 148/168/11
f 154/158/13 152/157/13 148/169/13
f 154/158/13 148/169/13 150/170/13
f 153/155/14 154/158/14 150/171/14
f 153/155/14 150/171/14 149/172/14
f 157/159/12 155/173/12 159/174/12
f 157/159/12 159/174/12 161/175/12
f 160/176/13 156/173/13 158/159/13
f 160/176/13 158/159/13 162/177/13
f 163/178/12 165/179/12 159/174/12
f 163/178/12 159/174/12 155/173/12
f 155/180/16 168/181/16 167/182/16
f 155/180/16 167/182/16 163/183/16
f 166/184/13 164/185/13 156/173/13
f 166/184/13 156/173/13 160/176/13
f 164/179/16 169/186/16 170/187/16
f 164/179/16 170/187/16 156/174/16
f 157/141/5 158/175/5 156/174/5
f 157/141/5 156/174/5 155/180/5
f 161/188/14 162/189/14 158/190/14
f 161/188/14 158/190/14 157/191/14
f 165/189/6 166/188/6 162/183/6
f 165/189/6 162/183/6 161/179/6
f 163/192/11 164/193/11 166/194/11
f 163/192/11 166/194/11 165/189/11
f 169/186/5 167/182/5 172/181/5
f 169/186/5 172/181/5 171/187/5
f 167/195/13 168/196/13 172/197/13
f 170/196/12 169/198/12 171/189/12
f 174/199/17 173/200/17 175/201/17
f 174/199/17 175/201/17 176/202/17
f 177/203/18 173/200/18 174/199/18
f 177/203/18 174/199/18 178/204/18
f 175/201/12 173/200/12 177/205/12
f 175/201/12 177/205/12 179/206/12
f 178/207/13 174/199/13 176/202/13
f 178/207/13 176/202/13 180/208/13
f 182/209/5 181/210/5 183/211/5
f 182/209/5 183/211/5 184/212/5
f 185/210/11 181/213/11 182/214/11
f 185/210/11 182/214/11 186/209/11
f 184/215/14 183/216/14 187/211/14
f 184/215/14 187/211/14 188/212/14
f 183/217/12 181/218/12 185/210/12
f 183/217/12 185/210/12 187/211/12
f 186/209/13 182/219/13 184/220/13
f 186/209/13 184/220/13 188/212/13
f 190/221/5 189/222/5 191/223/5
f 190/221/5 191/223/5 192/224/5
f 195/225/6 193/72/6 194/226/6
f 195/225/6 194/226/6 196/227/6
f 193/127/11 189/222/11 190/221/11
f 193/127/11 190/221/11 194/228/11
f 192/224/14 191/223/14 195/225/14
f 192/224/14 195/225/14 196/227/14
f 191/223/12 189/222/12 193/229/12
f 191/223/12 193/229/12 195/230/12
f 194/231/13 190/221/13 192/224/13
f 194/231/13 192/224/13 196/232/13
o drive
v 0.218750 1.125000 -1.250000
v 0.218750 1.125000 -1.312500
v 0.093750 1.125000 -1.250000
v 0.093750 1.125000 -1.312500
v 0.218750 1.500000 -1.250000
v 0.218750 1.500000 -1.312500
v 0.093750 1.500000 -1.250000
v 0.093750 1.500000 -1.312500
vn -0.0000 -1.0000 -0.0000
vn -0.0000 1.0000 -0.0000
vn 1.0000 -0.0000 -0.0000
vn -0.0000 -0.0000 1.0000
vn -0.0000 -0.0000 -1.0000
vt 0.757576 0.483051
vt 0.742424 0.483051
vt 0.742424 0.500000
vt 0.757576 0.500000
vt 0.757576 0.432203
vt 0.742424 0.432203
vt 0.787879 0.483051
vt 0.787879 0.432203
s 1
usemtl m_0df88bea-0692-09af-b275-4ad7dae3b6df
f 198/233/19 197/234/19 199/235/19
f 198/233/19 199/235/19 200/236/19
f 203/233/20 201/236/20 202/235/20
f 203/233/20 202/235/20 204/234/20
f 201/237/21 197/233/21 198/234/21
f 201/237/21 198/234/21 202/238/21
f 199/239/22 197/233/22 201/237/22
f 199/239/22 201/237/22 203/240/22
f 202/233/23 198/237/23 200/240/23
f 202/233/23 200/240/23 204/239/23
o joystick
v 0.500000 0.921875 -1.000000
v 0.500000 0.921875 -1.062500
v 0.500000 0.796875 -1.000000
v 0.500000 0.796875 -1.062500
v 0.437500 0.921875 -1.000000
v 0.437500 0.921875 -1.062500
v 0.437500 0.796875 -1.000000
v 0.437500 0.796875 -1.062500
vn 1.0000 -0.0000 -0.0000
vn -1.0000 -0.0000 -0.0000
vn -0.0000 1.0000 -0.0000
vn -0.0000 -0.0000 1.0000
vn -0.0000 -0.0000 -1.0000
vt 0.060606 0.347458
vt 0.045455 0.347458
vt 0.045455 0.330508
vt 0.060606 0.330508
vt 0.060606 0.355932
vt 0.045455 0.355932
s 1
usemtl m_0df88bea-0692-09af-b275-4ad7dae3b6df
f 206/241/24 205/242/24 207/243/24
f 206/241/24 207/243/24 208/244/24
f 211/244/25 209/241/25 210/242/25
f 211/244/25 210/242/25 212/243/25
f 209/242/26 205/241/26 206/245/26
f 209/242/26 206/245/26 210/246/26
f 207/244/27 205/241/27 209/242/27
f 207/244/27 209/242/27 211/243/27
f 210/241/28 206/242/28 208/243/28
f 210/241/28 208/243/28 212/244/28
