# Blender 4.0.2
# www.blender.org
mtllib LaserBoi.mtl
o LaserBoi
v 0.500000 1.000000 0.500000
v 0.500000 1.000000 -1.500000
v 0.500000 0.000000 0.500000
v 0.500000 -0.000000 -1.500000
v -0.500000 1.000000 -1.500000
v -0.500000 1.000000 0.500000
v -0.500000 -0.000000 -1.500000
v -0.500000 0.000000 0.500000
vn -0.0000 -0.0000 -1.0000
vn 1.0000 -0.0000 -0.0000
vn -0.0000 -0.0000 1.0000
vn -1.0000 -0.0000 -0.0000
vn -0.0000 1.0000 -0.0000
vn -0.0000 -1.0000 -0.0000
vt 0.500000 0.250000
vt 0.250000 0.500000
vt 0.250000 0.250000
vt 0.500000 0.750000
vt 0.000000 1.000000
vt 0.000000 0.750000
vt 0.750000 0.250000
vt 0.500000 0.500000
vt 0.000000 0.500000
vt 0.250000 0.000000
vt 0.750000 1.000000
vt 0.750000 0.500000
vt 0.500000 1.000000
vt 0.000000 0.000000
s 0
usemtl m_1d08f8f5-341f-6bd1-2458-a671e1a25622
f 7/1/1 2/2/1 4/3/1
f 4/4/2 1/5/2 3/6/2
f 3/7/3 6/8/3 8/1/3
f 8/8/4 5/6/4 7/9/4
f 1/9/5 5/10/5 6/2/5
f 4/8/6 8/11/6 7/12/6
f 7/1/1 5/8/1 2/2/1
f 4/4/2 2/13/2 1/5/2
f 3/7/3 1/12/3 6/8/3
f 8/8/4 6/4/4 5/6/4
f 1/9/5 2/14/5 5/10/5
f 4/8/6 3/13/6 8/11/6
