# Blender 4.0.1
# www.blender.org
o EyeL
v -0.094005 0.881777 -0.261803
v -0.115526 0.878944 -0.384904
v -0.053216 0.571951 -0.261803
v -0.074736 0.569117 -0.384904
v -0.237574 0.862876 -0.363198
v -0.216053 0.865709 -0.240097
v -0.196784 0.553049 -0.363198
v -0.175264 0.555883 -0.240097
vn -0.1722 -0.0227 -0.9848
vn 0.9764 0.1285 -0.1736
vn 0.1722 0.0227 0.9848
vn -0.9764 -0.1285 0.1736
vn -0.1305 0.9914 -0.0000
vn 0.1305 -0.9914 -0.0000
vt 0.062500 0.890625
vt 0.062500 0.968750
vt 0.031250 0.968750
vt 0.031250 0.890625
vt 0.000000 0.968750
vt 0.000000 0.890625
vt 0.125000 0.890625
vt 0.125000 0.968750
vt 0.093750 0.968750
vt 0.093750 0.890625
vt 0.031250 1.000000
vt 0.062500 1.000000
vt 0.093750 1.000000
s 0
f 7/1/1 5/2/1 2/3/1
f 4/4/1 7/1/1 2/3/1
f 4/4/2 2/3/2 1/5/2
f 3/6/2 4/4/2 1/5/2
f 3/7/3 1/8/3 6/9/3
f 8/10/3 3/7/3 6/9/3
f 8/10/4 6/9/4 5/2/4
f 7/1/4 8/10/4 5/2/4
f 1/11/5 2/3/5 5/2/5
f 6/12/5 1/11/5 5/2/5
f 4/2/6 3/12/6 8/13/6
f 7/9/6 4/2/6 8/13/6
o EyeR
v 0.216053 0.865709 -0.240097
v 0.237574 0.862876 -0.363198
v 0.175264 0.555883 -0.240097
v 0.196784 0.553049 -0.363198
v 0.115526 0.878944 -0.384904
v 0.094005 0.881777 -0.261803
v 0.074736 0.569117 -0.384904
v 0.053216 0.571951 -0.261803
vn 0.1722 -0.0227 -0.9848
vn 0.9764 -0.1285 0.1736
vn -0.1722 0.0227 0.9848
vn -0.9764 0.1285 -0.1736
vn 0.1305 0.9914 -0.0000
vn -0.1305 -0.9914 -0.0000
vt 0.031250 0.890625
vt 0.031250 0.968750
vt 0.062500 0.968750
vt 0.062500 0.890625
vt 0.093750 0.968750
vt 0.093750 0.890625
vt 0.125000 0.968750
vt 0.125000 0.890625
vt 0.000000 0.890625
vt 0.000000 0.968750
vt 0.062500 1.000000
vt 0.031250 1.000000
vt 0.093750 1.000000
s 0
f 15/14/7 13/15/7 10/16/7
f 12/17/7 15/14/7 10/16/7
f 12/17/8 10/16/8 9/18/8
f 11/19/8 12/17/8 9/18/8
f 11/19/9 9/18/9 14/20/9
f 16/21/9 11/19/9 14/20/9
f 16/22/10 14/23/10 13/15/10
f 15/14/10 16/22/10 13/15/10
f 9/24/11 10/16/11 13/15/11
f 14/25/11 9/24/11 13/15/11
f 12/18/12 11/26/12 16/24/12
f 15/16/12 12/18/12 16/24/12
o Body
v 0.328125 0.570183 0.414536
v 0.328125 0.705845 -0.354845
v 0.328125 0.293205 0.365698
v 0.328125 0.428868 -0.403683
v -0.328125 0.705845 -0.354845
v -0.328125 0.570183 0.414536
v -0.328125 0.428868 -0.403683
v -0.328125 0.293205 0.365698
v 0.312500 0.557508 0.396435
v 0.312500 0.687744 -0.342170
v 0.312500 0.311306 0.353023
v 0.312500 0.441542 -0.385582
v -0.312500 0.687744 -0.342170
v -0.312500 0.557508 0.396435
v -0.312500 0.441542 -0.385582
v -0.312500 0.311306 0.353023
v 0.281250 0.322159 0.322723
v 0.281250 0.441542 -0.354332
v 0.281250 0.199058 0.301017
v 0.281250 0.318441 -0.376038
v -0.281250 0.441542 -0.354332
v -0.281250 0.322159 0.322723
v -0.281250 0.318441 -0.376038
v -0.281250 0.199058 0.301017
vn -0.0000 0.1736 -0.9848
vn 1.0000 -0.0000 -0.0000
vn -0.0000 -0.1736 0.9848
vn -1.0000 -0.0000 -0.0000
vn -0.0000 0.9848 0.1736
vn -0.0000 -0.9848 -0.1736
vt 0.656250 0.000000
vt 0.656250 0.062500
vt 0.500000 0.062500
vt 0.500000 0.000000
vt 0.312500 0.062500
vt 0.312500 0.000000
vt 1.000000 0.000000
vt 1.000000 0.062500
vt 0.843750 0.062500
vt 0.843750 0.000000
vt 0.500000 0.250000
vt 0.656250 0.250000
vt 0.812500 0.250000
vt 0.812500 0.062500
vt 0.343750 0.750000
vt 0.343750 0.812500
vt 0.187500 0.812500
vt 0.187500 0.750000
vt 0.000000 0.812500
vt 0.000000 0.750000
vt 0.687500 0.750000
vt 0.687500 0.812500
vt 0.531250 0.812500
vt 0.531250 0.750000
vt 0.187500 1.000000
vt 0.343750 1.000000
vt 0.500000 1.000000
vt 0.500000 0.812500
vt 0.312500 0.546875
vt 0.312500 0.578125
vt 0.171875 0.578125
vt 0.171875 0.546875
vt 0.000000 0.578125
vt 0.000000 0.546875
vt 0.625000 0.546875
vt 0.625000 0.578125
vt 0.484375 0.578125
vt 0.484375 0.546875
vt 0.171875 0.750000
vt 0.312500 0.750000
vt 0.453125 0.750000
vt 0.453125 0.578125
s 0
f 23/27/13 21/28/13 18/29/13
f 20/30/13 23/27/13 18/29/13
f 20/30/14 18/29/14 17/31/14
f 19/32/14 20/30/14 17/31/14
f 19/33/15 17/34/15 22/35/15
f 24/36/15 19/33/15 22/35/15
f 24/36/16 22/35/16 21/28/16
f 23/27/16 24/36/16 21/28/16
f 17/37/17 18/29/17 21/28/17
f 22/38/17 17/37/17 21/28/17
f 20/28/18 19/38/18 24/39/18
f 23/40/18 20/28/18 24/39/18
f 31/41/13 29/42/13 26/43/13
f 28/44/13 31/41/13 26/43/13
f 28/44/14 26/43/14 25/45/14
f 27/46/14 28/44/14 25/45/14
f 27/47/15 25/48/15 30/49/15
f 32/50/15 27/47/15 30/49/15
f 32/50/16 30/49/16 29/42/16
f 31/41/16 32/50/16 29/42/16
f 25/51/17 26/43/17 29/42/17
f 30/52/17 25/51/17 29/42/17
f 28/42/18 27/52/18 32/53/18
f 31/54/18 28/42/18 32/53/18
f 39/55/13 37/56/13 34/57/13
f 36/58/13 39/55/13 34/57/13
f 36/58/14 34/57/14 33/59/14
f 35/60/14 36/58/14 33/59/14
f 35/61/15 33/62/15 38/63/15
f 40/64/15 35/61/15 38/63/15
f 40/64/16 38/63/16 37/56/16
f 39/55/16 40/64/16 37/56/16
f 33/65/17 34/57/17 37/56/17
f 38/66/17 33/65/17 37/56/17
f 36/56/18 35/66/18 40/67/18
f 39/68/18 36/56/18 40/67/18
o LegR1
v 0.268306 0.445083 -0.187500
v 0.268306 0.445082 -0.312500
v 0.621859 0.091529 -0.187500
v 0.621859 0.091529 -0.312500
v 0.179917 0.356694 -0.312500
v 0.179917 0.356694 -0.187500
v 0.533471 0.003141 -0.312500
v 0.533471 0.003141 -0.187500
vn -0.0000 -0.0000 -1.0000
vn 0.7071 0.7071 -0.0000
vn -0.0000 -0.0000 1.0000
vn -0.7071 -0.7071 -0.0000
vn -0.7071 0.7071 -0.0000
vn 0.7071 -0.7071 -0.0000
vt 0.062500 0.390625
vt 0.062500 0.515625
vt 0.031250 0.515625
vt 0.031250 0.390625
vt 0.000000 0.515625
vt 0.000000 0.390625
vt 0.125000 0.390625
vt 0.125000 0.515625
vt 0.093750 0.515625
vt 0.093750 0.390625
vt 0.031250 0.546875
vt 0.062500 0.546875
vt 0.093750 0.546875
s 0
f 47/69/19 45/70/19 42/71/19
f 44/72/19 47/69/19 42/71/19
f 44/72/20 42/71/20 41/73/20
f 43/74/20 44/72/20 41/73/20
f 43/75/21 41/76/21 46/77/21
f 48/78/21 43/75/21 46/77/21
f 48/78/22 46/77/22 45/70/22
f 47/69/22 48/78/22 45/70/22
f 41/79/23 42/71/23 45/70/23
f 46/80/23 41/79/23 45/70/23
f 44/70/24 43/80/24 48/81/24
f 47/77/24 44/70/24 48/81/24
o LegR2
v 0.268306 0.445083 -0.015625
v 0.268306 0.445083 -0.140625
v 0.621859 0.091529 -0.015625
v 0.621859 0.091529 -0.140625
v 0.179917 0.356694 -0.140625
v 0.179917 0.356694 -0.015625
v 0.533471 0.003141 -0.140625
v 0.533471 0.003141 -0.015625
vn -0.0000 -0.0000 -1.0000
vn 0.7071 0.7071 -0.0000
vn -0.0000 -0.0000 1.0000
vn -0.7071 -0.7071 -0.0000
vn -0.7071 0.7071 -0.0000
vn 0.7071 -0.7071 -0.0000
vt 0.062500 0.390625
vt 0.062500 0.515625
vt 0.031250 0.515625
vt 0.031250 0.390625
vt 0.000000 0.515625
vt 0.000000 0.390625
vt 0.125000 0.390625
vt 0.125000 0.515625
vt 0.093750 0.515625
vt 0.093750 0.390625
vt 0.031250 0.546875
vt 0.062500 0.546875
vt 0.093750 0.546875
s 0
f 55/82/25 53/83/25 50/84/25
f 52/85/25 55/82/25 50/84/25
f 52/85/26 50/84/26 49/86/26
f 51/87/26 52/85/26 49/86/26
f 51/88/27 49/89/27 54/90/27
f 56/91/27 51/88/27 54/90/27
f 56/91/28 54/90/28 53/83/28
f 55/82/28 56/91/28 53/83/28
f 49/92/29 50/84/29 53/83/29
f 54/93/29 49/92/29 53/83/29
f 52/83/30 51/93/30 56/94/30
f 55/90/30 52/83/30 56/94/30
o LegR3
v 0.268306 0.445083 0.156250
v 0.268306 0.445083 0.031250
v 0.621859 0.091529 0.156250
v 0.621859 0.091529 0.031250
v 0.179917 0.356694 0.031250
v 0.179917 0.356694 0.156250
v 0.533471 0.003141 0.031250
v 0.533471 0.003141 0.156250
vn -0.0000 -0.0000 -1.0000
vn 0.7071 0.7071 -0.0000
vn -0.0000 -0.0000 1.0000
vn -0.7071 -0.7071 -0.0000
vn -0.7071 0.7071 -0.0000
vn 0.7071 -0.7071 -0.0000
vt 0.062500 0.390625
vt 0.062500 0.515625
vt 0.031250 0.515625
vt 0.031250 0.390625
vt 0.000000 0.515625
vt 0.000000 0.390625
vt 0.125000 0.390625
vt 0.125000 0.515625
vt 0.093750 0.515625
vt 0.093750 0.390625
vt 0.031250 0.546875
vt 0.062500 0.546875
vt 0.093750 0.546875
s 0
f 63/95/31 61/96/31 58/97/31
f 60/98/31 63/95/31 58/97/31
f 60/98/32 58/97/32 57/99/32
f 59/100/32 60/98/32 57/99/32
f 59/101/33 57/102/33 62/103/33
f 64/104/33 59/101/33 62/103/33
f 64/104/34 62/103/34 61/96/34
f 63/95/34 64/104/34 61/96/34
f 57/105/35 58/97/35 61/96/35
f 62/106/35 57/105/35 61/96/35
f 60/96/36 59/106/36 64/107/36
f 63/103/36 60/96/36 64/107/36
o LegR4
v 0.268306 0.445083 0.328125
v 0.268306 0.445083 0.203125
v 0.621859 0.091529 0.328125
v 0.621859 0.091529 0.203125
v 0.179917 0.356694 0.203125
v 0.179917 0.356694 0.328125
v 0.533471 0.003141 0.203125
v 0.533471 0.003141 0.328125
vn -0.0000 -0.0000 -1.0000
vn 0.7071 0.7071 -0.0000
vn -0.0000 -0.0000 1.0000
vn -0.7071 -0.7071 -0.0000
vn -0.7071 0.7071 -0.0000
vn 0.7071 -0.7071 -0.0000
vt 0.062500 0.390625
vt 0.062500 0.515625
vt 0.031250 0.515625
vt 0.031250 0.390625
vt 0.000000 0.515625
vt 0.000000 0.390625
vt 0.125000 0.390625
vt 0.125000 0.515625
vt 0.093750 0.515625
vt 0.093750 0.390625
vt 0.031250 0.546875
vt 0.062500 0.546875
vt 0.093750 0.546875
s 0
f 71/108/37 69/109/37 66/110/37
f 68/111/37 71/108/37 66/110/37
f 68/111/38 66/110/38 65/112/38
f 67/113/38 68/111/38 65/112/38
f 67/114/39 65/115/39 70/116/39
f 72/117/39 67/114/39 70/116/39
f 72/117/40 70/116/40 69/109/40
f 71/108/40 72/117/40 69/109/40
f 65/118/41 66/110/41 69/109/41
f 70/119/41 65/118/41 69/109/41
f 68/109/42 67/119/42 72/120/42
f 71/116/42 68/109/42 72/120/42
o LegL1
v -0.179917 0.356694 -0.187500
v -0.179917 0.356694 -0.312500
v -0.533471 0.003141 -0.187500
v -0.533471 0.003141 -0.312500
v -0.268306 0.445082 -0.312500
v -0.268306 0.445083 -0.187500
v -0.621859 0.091529 -0.312500
v -0.621859 0.091529 -0.187500
vn -0.0000 -0.0000 -1.0000
vn 0.7071 -0.7071 -0.0000
vn -0.0000 -0.0000 1.0000
vn -0.7071 0.7071 -0.0000
vn 0.7071 0.7071 -0.0000
vn -0.7071 -0.7071 -0.0000
vt 0.031250 0.390625
vt 0.031250 0.515625
vt 0.062500 0.515625
vt 0.062500 0.390625
vt 0.093750 0.515625
vt 0.093750 0.390625
vt 0.125000 0.515625
vt 0.125000 0.390625
vt 0.000000 0.390625
vt 0.000000 0.515625
vt 0.062500 0.546875
vt 0.031250 0.546875
vt 0.093750 0.546875
s 0
f 79/121/43 77/122/43 74/123/43
f 76/124/43 79/121/43 74/123/43
f 76/124/44 74/123/44 73/125/44
f 75/126/44 76/124/44 73/125/44
f 75/126/45 73/125/45 78/127/45
f 80/128/45 75/126/45 78/127/45
f 80/129/46 78/130/46 77/122/46
f 79/121/46 80/129/46 77/122/46
f 73/131/47 74/123/47 77/122/47
f 78/132/47 73/131/47 77/122/47
f 76/125/48 75/133/48 80/131/48
f 79/123/48 76/125/48 80/131/48
o LegL2
v -0.179917 0.356694 -0.015625
v -0.179917 0.356694 -0.140625
v -0.533471 0.003141 -0.015625
v -0.533471 0.003141 -0.140625
v -0.268306 0.445083 -0.140625
v -0.268306 0.445083 -0.015625
v -0.621859 0.091529 -0.140625
v -0.621859 0.091529 -0.015625
vn -0.0000 -0.0000 -1.0000
vn 0.7071 -0.7071 -0.0000
vn -0.0000 -0.0000 1.0000
vn -0.7071 0.7071 -0.0000
vn 0.7071 0.7071 -0.0000
vn -0.7071 -0.7071 -0.0000
vt 0.031250 0.390625
vt 0.031250 0.515625
vt 0.062500 0.515625
vt 0.062500 0.390625
vt 0.093750 0.515625
vt 0.093750 0.390625
vt 0.125000 0.515625
vt 0.125000 0.390625
vt 0.000000 0.390625
vt 0.000000 0.515625
vt 0.062500 0.546875
vt 0.031250 0.546875
vt 0.093750 0.546875
s 0
f 87/134/49 85/135/49 82/136/49
f 84/137/49 87/134/49 82/136/49
f 84/137/50 82/136/50 81/138/50
f 83/139/50 84/137/50 81/138/50
f 83/139/51 81/138/51 86/140/51
f 88/141/51 83/139/51 86/140/51
f 88/142/52 86/143/52 85/135/52
f 87/134/52 88/142/52 85/135/52
f 81/144/53 82/136/53 85/135/53
f 86/145/53 81/144/53 85/135/53
f 84/138/54 83/146/54 88/144/54
f 87/136/54 84/138/54 88/144/54
o LegL3
v -0.179917 0.356694 0.156250
v -0.179917 0.356694 0.031250
v -0.533471 0.003141 0.156250
v -0.533471 0.003141 0.031250
v -0.268306 0.445083 0.031250
v -0.268306 0.445083 0.156250
v -0.621859 0.091529 0.031250
v -0.621859 0.091529 0.156250
vn -0.0000 -0.0000 -1.0000
vn 0.7071 -0.7071 -0.0000
vn -0.0000 -0.0000 1.0000
vn -0.7071 0.7071 -0.0000
vn 0.7071 0.7071 -0.0000
vn -0.7071 -0.7071 -0.0000
vt 0.031250 0.390625
vt 0.031250 0.515625
vt 0.062500 0.515625
vt 0.062500 0.390625
vt 0.093750 0.515625
vt 0.093750 0.390625
vt 0.125000 0.515625
vt 0.125000 0.390625
vt 0.000000 0.390625
vt 0.000000 0.515625
vt 0.062500 0.546875
vt 0.031250 0.546875
vt 0.093750 0.546875
s 0
f 95/147/55 93/148/55 90/149/55
f 92/150/55 95/147/55 90/149/55
f 92/150/56 90/149/56 89/151/56
f 91/152/56 92/150/56 89/151/56
f 91/152/57 89/151/57 94/153/57
f 96/154/57 91/152/57 94/153/57
f 96/155/58 94/156/58 93/148/58
f 95/147/58 96/155/58 93/148/58
f 89/157/59 90/149/59 93/148/59
f 94/158/59 89/157/59 93/148/59
f 92/151/60 91/159/60 96/157/60
f 95/149/60 92/151/60 96/157/60
o LegL4
v -0.179917 0.356694 0.328125
v -0.179917 0.356694 0.203125
v -0.533471 0.003141 0.328125
v -0.533471 0.003141 0.203125
v -0.268306 0.445083 0.203125
v -0.268306 0.445083 0.328125
v -0.621859 0.091529 0.203125
v -0.621859 0.091529 0.328125
vn -0.0000 -0.0000 -1.0000
vn 0.7071 -0.7071 -0.0000
vn -0.0000 -0.0000 1.0000
vn -0.7071 0.7071 -0.0000
vn 0.7071 0.7071 -0.0000
vn -0.7071 -0.7071 -0.0000
vt 0.031250 0.390625
vt 0.031250 0.515625
vt 0.062500 0.515625
vt 0.062500 0.390625
vt 0.093750 0.515625
vt 0.093750 0.390625
vt 0.125000 0.515625
vt 0.125000 0.390625
vt 0.000000 0.390625
vt 0.000000 0.515625
vt 0.062500 0.546875
vt 0.031250 0.546875
vt 0.093750 0.546875
s 0
f 103/160/61 101/161/61 98/162/61
f 100/163/61 103/160/61 98/162/61
f 100/163/62 98/162/62 97/164/62
f 99/165/62 100/163/62 97/164/62
f 99/165/63 97/164/63 102/166/63
f 104/167/63 99/165/63 102/166/63
f 104/168/64 102/169/64 101/161/64
f 103/160/64 104/168/64 101/161/64
f 97/170/65 98/162/65 101/161/65
f 102/171/65 97/170/65 101/161/65
f 100/164/66 99/172/66 104/170/66
f 103/162/66 100/164/66 104/170/66
o ClawL
v -0.241128 0.490485 -0.345674
v -0.166141 0.346979 -0.683917
v -0.261835 0.259515 -0.252271
v -0.186848 0.116009 -0.590513
v -0.349197 0.346979 -0.724499
v -0.424184 0.490485 -0.386257
v -0.369904 0.116009 -0.631096
v -0.444890 0.259515 -0.292853
vn 0.2000 -0.3827 -0.9020
vn 0.9763 -0.0000 0.2164
vn -0.2000 0.3827 0.9020
vn -0.9763 -0.0000 -0.2164
vn 0.0828 0.9239 -0.3736
vn -0.0828 -0.9239 0.3736
vt 0.093750 0.234375
vt 0.093750 0.296875
vt 0.140625 0.296875
vt 0.140625 0.234375
vt 0.234375 0.296875
vt 0.234375 0.234375
vt 0.281250 0.296875
vt 0.281250 0.234375
vt 0.000000 0.234375
vt 0.000000 0.296875
vt 0.140625 0.390625
vt 0.093750 0.390625
vt 0.187500 0.296875
vt 0.187500 0.390625
s 0
f 111/173/67 109/174/67 106/175/67
f 108/176/67 111/173/67 106/175/67
f 108/176/68 106/175/68 105/177/68
f 107/178/68 108/176/68 105/177/68
f 107/178/69 105/177/69 110/179/69
f 112/180/69 107/178/69 110/179/69
f 112/181/70 110/182/70 109/174/70
f 111/173/70 112/181/70 109/174/70
f 105/183/71 106/175/71 109/174/71
f 110/184/71 105/183/71 109/174/71
f 108/185/72 107/186/72 112/183/72
f 111/175/72 108/185/72 112/183/72
o ClawR
v 0.424184 0.490485 -0.386257
v 0.349197 0.346979 -0.724499
v 0.444890 0.259515 -0.292853
v 0.369904 0.116009 -0.631096
v 0.166141 0.346979 -0.683917
v 0.241128 0.490485 -0.345674
v 0.186848 0.116009 -0.590513
v 0.261835 0.259515 -0.252271
vn -0.2000 -0.3827 -0.9020
vn 0.9763 -0.0000 -0.2164
vn 0.2000 0.3827 0.9020
vn -0.9763 -0.0000 0.2164
vn -0.0828 0.9239 -0.3736
vn 0.0828 -0.9239 0.3736
vt 0.140625 0.234375
vt 0.140625 0.296875
vt 0.093750 0.296875
vt 0.093750 0.234375
vt 0.000000 0.296875
vt 0.000000 0.234375
vt 0.281250 0.234375
vt 0.281250 0.296875
vt 0.234375 0.296875
vt 0.234375 0.234375
vt 0.093750 0.390625
vt 0.140625 0.390625
vt 0.187500 0.390625
vt 0.187500 0.296875
s 0
f 119/187/73 117/188/73 114/189/73
f 116/190/73 119/187/73 114/189/73
f 116/190/74 114/189/74 113/191/74
f 115/192/74 116/190/74 113/191/74
f 115/193/75 113/194/75 118/195/75
f 120/196/75 115/193/75 118/195/75
f 120/196/76 118/195/76 117/188/76
f 119/187/76 120/196/76 117/188/76
f 113/197/77 114/189/77 117/188/77
f 118/198/77 113/197/77 117/188/77
f 116/188/78 115/198/78 120/199/78
f 119/200/78 116/188/78 120/199/78
