# Blender 4.0.1
# www.blender.org
o Head
v 0.093750 0.281250 -0.437500
v 0.093750 0.281250 -0.687500
v 0.093750 0.093750 -0.437500
v 0.093750 0.093750 -0.687500
v -0.093750 0.281250 -0.687500
v -0.093750 0.281250 -0.437500
v -0.093750 0.093750 -0.687500
v -0.093750 0.093750 -0.437500
vn -0.0000 -0.0000 -1.0000
vn 1.0000 -0.0000 -0.0000
vn -0.0000 -0.0000 1.0000
vn -1.0000 -0.0000 -0.0000
vn -0.0000 1.0000 -0.0000
vn -0.0000 -1.0000 -0.0000
vt 0.343750 0.890625
vt 0.343750 0.937500
vt 0.296875 0.937500
vt 0.296875 0.890625
vt 0.234375 0.937500
vt 0.234375 0.890625
vt 0.453125 0.890625
vt 0.453125 0.937500
vt 0.406250 0.937500
vt 0.406250 0.890625
vt 0.296875 1.000000
vt 0.343750 1.000000
vt 0.390625 1.000000
vt 0.390625 0.937500
s 0
f 7/1/1 5/2/1 2/3/1
f 4/4/1 7/1/1 2/3/1
f 4/4/2 2/3/2 1/5/2
f 3/6/2 4/4/2 1/5/2
f 3/7/3 1/8/3 6/9/3
f 8/10/3 3/7/3 6/9/3
f 8/10/4 6/9/4 5/2/4
f 7/1/4 8/10/4 5/2/4
f 1/11/5 2/3/5 5/2/5
f 6/12/5 1/11/5 5/2/5
f 4/2/6 3/12/6 8/13/6
f 7/14/6 4/2/6 8/13/6
o Jaw
v 0.093125 0.155625 -0.438125
v 0.093125 0.155625 -0.686875
v 0.093125 0.031875 -0.438125
v 0.093125 0.031875 -0.686875
v -0.093125 0.155625 -0.686875
v -0.093125 0.155625 -0.438125
v -0.093125 0.031875 -0.686875
v -0.093125 0.031875 -0.438125
vn -0.0000 -0.0000 -1.0000
vn 1.0000 -0.0000 -0.0000
vn -0.0000 -0.0000 1.0000
vn -1.0000 -0.0000 -0.0000
vn -0.0000 1.0000 -0.0000
vn -0.0000 -1.0000 -0.0000
vt 0.562500 0.906250
vt 0.562500 0.937500
vt 0.515625 0.937500
vt 0.515625 0.906250
vt 0.453125 0.937500
vt 0.453125 0.906250
vt 0.671875 0.906250
vt 0.671875 0.937500
vt 0.625000 0.937500
vt 0.625000 0.906250
vt 0.515625 1.000000
vt 0.562500 1.000000
vt 0.609375 1.000000
vt 0.609375 0.937500
s 0
f 15/15/7 13/16/7 10/17/7
f 12/18/7 15/15/7 10/17/7
f 12/18/8 10/17/8 9/19/8
f 11/20/8 12/18/8 9/19/8
f 11/21/9 9/22/9 14/23/9
f 16/24/9 11/21/9 14/23/9
f 16/24/10 14/23/10 13/16/10
f 15/15/10 16/24/10 13/16/10
f 9/25/11 10/17/11 13/16/11
f 14/26/11 9/25/11 13/16/11
f 12/16/12 11/26/12 16/27/12
f 15/28/12 12/16/12 16/27/12
o Dorsal1
v 0.000000 0.625000 -0.000000
v 0.000000 0.625000 -0.437500
v 0.000000 0.312500 -0.000000
v 0.000000 0.312500 -0.437500
v 0.000000 0.625000 -0.437500
v 0.000000 0.625000 -0.000000
v 0.000000 0.312500 -0.437500
v 0.000000 0.312500 -0.000000
vn -0.0000 -0.0000 -1.0000
vn 1.0000 -0.0000 -0.0000
vn -0.0000 -0.0000 1.0000
vn -1.0000 -0.0000 -0.0000
vn -0.0000 -0.0000 -0.0000
vt 0.890625 0.781250
vt 0.890625 0.859375
vt 0.781250 0.859375
vt 0.781250 0.781250
vt 1.000000 0.781250
vt 1.000000 0.859375
vt 0.890625 0.968750
s 0
f 23/29/13 21/30/13 18/30/13
f 20/29/13 23/29/13 18/30/13
f 20/29/14 18/30/14 17/31/14
f 19/32/14 20/29/14 17/31/14
f 19/33/15 17/34/15 22/34/15
f 24/33/15 19/33/15 22/34/15
f 24/33/16 22/34/16 21/30/16
f 23/29/16 24/33/16 21/30/16
f 17/35/17 18/30/17 21/30/17
f 22/35/17 17/35/17 21/30/17
f 20/30/17 19/35/17 24/35/17
f 23/30/17 20/30/17 24/35/17
o Ventral1
v 0.000000 0.000000 0.000000
v 0.000000 -0.000000 -0.437500
v 0.000000 -0.312500 0.000000
v 0.000000 -0.312500 -0.437500
v 0.000000 -0.000000 -0.437500
v 0.000000 0.000000 0.000000
v 0.000000 -0.312500 -0.437500
v 0.000000 -0.312500 0.000000
vn -0.0000 -0.0000 -1.0000
vn 1.0000 -0.0000 -0.0000
vn -0.0000 -0.0000 1.0000
vn -1.0000 -0.0000 -0.0000
vn -0.0000 -0.0000 -0.0000
vt 0.890625 0.703125
vt 0.890625 0.781250
vt 0.781250 0.781250
vt 0.781250 0.703125
vt 1.000000 0.703125
vt 1.000000 0.781250
vt 0.890625 0.890625
s 0
f 31/36/18 29/37/18 26/37/18
f 28/36/18 31/36/18 26/37/18
f 28/36/19 26/37/19 25/38/19
f 27/39/19 28/36/19 25/38/19
f 27/40/20 25/41/20 30/41/20
f 32/40/20 27/40/20 30/41/20
f 32/40/21 30/41/21 29/37/21
f 31/36/21 32/40/21 29/37/21
f 25/42/22 26/37/22 29/37/22
f 30/42/22 25/42/22 29/37/22
f 28/37/22 27/42/22 32/42/22
f 31/37/22 28/37/22 32/42/22
o FinR
v 0.268506 0.250000 0.158955
v 0.125000 0.250000 -0.187500
v 0.268506 0.000000 0.158955
v 0.125000 -0.000000 -0.187500
v 0.125000 0.250000 -0.187500
v 0.268506 0.250000 0.158955
v 0.125000 -0.000000 -0.187500
v 0.268506 0.000000 0.158955
vn -0.3827 -0.0000 -0.9239
vn -0.0000 -0.0000 -1.0000
vn 0.9239 -0.0000 -0.3827
vn 0.3827 -0.0000 0.9239
vn -0.0000 -0.0000 1.0000
vn -0.9239 -0.0000 0.3827
vn -0.0000 1.0000 -0.0000
vn -0.0000 1.0000 0.0001
vn -0.0000 -1.0000 0.0001
vn -0.0000 -1.0000 -0.0000
vt 0.906250 0.859375
vt 0.906250 0.921875
vt 0.812500 0.921875
vt 0.812500 0.859375
vt 1.000000 0.859375
vt 1.000000 0.921875
vt 0.906250 1.015625
s 0
f 39/43/23 37/44/24 34/44/23
f 36/43/24 39/43/23 34/44/23
f 36/43/25 34/44/25 33/45/25
f 35/46/25 36/43/25 33/45/25
f 35/47/26 33/48/27 38/48/26
f 40/47/27 35/47/26 38/48/26
f 40/47/28 38/48/28 37/44/28
f 39/43/28 40/47/28 37/44/28
f 33/49/29 34/44/24 37/44/29
f 38/49/24 33/49/29 37/44/30
f 36/44/31 35/49/24 40/49/32
f 39/44/24 36/44/32 40/49/32
o FinL
v -0.268506 0.250000 0.158955
v -0.125000 0.250000 -0.187500
v -0.268506 0.000000 0.158955
v -0.125000 -0.000000 -0.187500
v -0.125000 0.250000 -0.187500
v -0.268506 0.250000 0.158955
v -0.125000 -0.000000 -0.187500
v -0.268506 0.000000 0.158955
vn 0.3827 -0.0000 -0.9239
vn -0.0000 -0.0000 -1.0000
vn 0.9239 -0.0000 0.3827
vn -0.3827 -0.0000 0.9239
vn -0.0000 -0.0000 1.0000
vn -0.9239 -0.0000 -0.3827
vn -0.0000 1.0000 -0.0000
vn -0.0000 1.0000 0.0001
vn -0.0000 -1.0000 0.0001
vn -0.0000 -1.0000 -0.0000
vt 0.906250 0.859375
vt 0.906250 0.921875
vt 1.000000 0.921875
vt 1.000000 0.859375
vt 0.812500 0.859375
vt 0.812500 0.921875
vt 0.906250 1.015625
s 0
f 47/50/33 45/51/34 42/51/33
f 44/50/34 47/50/33 42/51/33
f 44/50/35 42/51/35 41/52/35
f 43/53/35 44/50/35 41/52/35
f 43/53/36 41/52/37 46/52/36
f 48/53/37 43/53/36 46/52/36
f 48/54/38 46/55/38 45/51/38
f 47/50/38 48/54/38 45/51/38
f 41/56/39 42/51/34 45/51/39
f 46/56/34 41/56/39 45/51/40
f 44/51/41 43/56/34 48/56/42
f 47/51/34 44/51/42 48/56/42
o Body1
v 0.125000 0.312500 -0.000000
v 0.125000 0.312500 -0.437500
v 0.125000 0.000000 0.000000
v 0.125000 -0.000000 -0.437500
v -0.125000 0.312500 -0.437500
v -0.125000 0.312500 -0.000000
v -0.125000 -0.000000 -0.437500
v -0.125000 0.000000 0.000000
vn -0.0000 -0.0000 -1.0000
vn 1.0000 -0.0000 -0.0000
vn -0.0000 -0.0000 1.0000
vn -1.0000 -0.0000 -0.0000
vn -0.0000 1.0000 -0.0000
vn -0.0000 -1.0000 -0.0000
vt 0.171875 0.812500
vt 0.171875 0.890625
vt 0.109375 0.890625
vt 0.109375 0.812500
vt 0.000000 0.890625
vt 0.000000 0.812500
vt 0.343750 0.812500
vt 0.343750 0.890625
vt 0.281250 0.890625
vt 0.281250 0.812500
vt 0.109375 1.000000
vt 0.171875 1.000000
vt 0.234375 1.000000
vt 0.234375 0.890625
s 0
f 55/57/43 53/58/43 50/59/43
f 52/60/43 55/57/43 50/59/43
f 52/60/44 50/59/44 49/61/44
f 51/62/44 52/60/44 49/61/44
f 51/63/45 49/64/45 54/65/45
f 56/66/45 51/63/45 54/65/45
f 56/66/46 54/65/46 53/58/46
f 55/57/46 56/66/46 53/58/46
f 49/67/47 50/59/47 53/58/47
f 54/68/47 49/67/47 53/58/47
f 52/58/48 51/68/48 56/69/48
f 55/70/48 52/58/48 56/69/48
o Dorsal2
v 0.000625 0.750000 0.687500
v 0.000625 0.750000 -0.000000
v 0.000625 0.312500 0.687500
v 0.000625 0.312500 -0.000000
v 0.000625 0.750000 -0.000000
v 0.000625 0.750000 0.687500
v 0.000625 0.312500 -0.000000
v 0.000625 0.312500 0.687500
vn -0.0000 -0.0000 -1.0000
vn 1.0000 -0.0000 -0.0000
vn -0.0000 -0.0000 1.0000
vn -1.0000 -0.0000 -0.0000
vn -0.0000 -0.0000 -0.0000
vt 0.828125 0.312500
vt 0.828125 0.421875
vt 0.656250 0.421875
vt 0.656250 0.312500
vt 1.000000 0.312500
vt 1.000000 0.421875
vt 0.828125 0.593750
s 0
f 63/71/49 61/72/49 58/72/49
f 60/71/49 63/71/49 58/72/49
f 60/71/50 58/72/50 57/73/50
f 59/74/50 60/71/50 57/73/50
f 59/75/51 57/76/51 62/76/51
f 64/75/51 59/75/51 62/76/51
f 64/75/52 62/76/52 61/72/52
f 63/71/52 64/75/52 61/72/52
f 57/77/53 58/72/53 61/72/53
f 62/77/53 57/77/53 61/72/53
f 60/72/53 59/77/53 64/77/53
f 63/72/53 60/72/53 64/77/53
o Ventral2
v 0.000625 0.000000 0.687500
v 0.000625 0.000000 0.000000
v 0.000625 -0.437500 0.687500
v 0.000625 -0.437500 0.000000
v 0.000625 0.000000 0.000000
v 0.000625 0.000000 0.687500
v 0.000625 -0.437500 0.000000
v 0.000625 -0.437500 0.687500
vn -0.0000 -0.0000 -1.0000
vn 1.0000 -0.0000 -0.0000
vn -0.0000 -0.0000 1.0000
vn -1.0000 -0.0000 -0.0000
vn -0.0000 -0.0000 -0.0000
vt 0.828125 0.203125
vt 0.828125 0.312500
vt 0.656250 0.312500
vt 0.656250 0.203125
vt 1.000000 0.203125
vt 1.000000 0.312500
vt 0.828125 0.484375
s 0
f 71/78/54 69/79/54 66/79/54
f 68/78/54 71/78/54 66/79/54
f 68/78/55 66/79/55 65/80/55
f 67/81/55 68/78/55 65/80/55
f 67/82/56 65/83/56 70/83/56
f 72/82/56 67/82/56 70/83/56
f 72/82/57 70/83/57 69/79/57
f 71/78/57 72/82/57 69/79/57
f 65/84/58 66/79/58 69/79/58
f 70/84/58 65/84/58 69/79/58
f 68/79/58 67/84/58 72/84/58
f 71/79/58 68/79/58 72/84/58
o Dorsal3
v 0.000000 0.625000 1.000000
v 0.000000 0.625000 0.500000
v 0.000000 0.312500 1.000000
v 0.000000 0.312500 0.500000
v 0.000000 0.625000 0.500000
v 0.000000 0.625000 1.000000
v 0.000000 0.312500 0.500000
v 0.000000 0.312500 1.000000
vn -0.0000 -0.0000 -1.0000
vn 1.0000 -0.0000 -0.0000
vn -0.0000 -0.0000 1.0000
vn -1.0000 -0.0000 -0.0000
vn -0.0000 -0.0000 -0.0000
vt 0.875000 0.500000
vt 0.875000 0.578125
vt 0.750000 0.578125
vt 0.750000 0.500000
vt 1.000000 0.500000
vt 1.000000 0.578125
vt 0.875000 0.703125
s 0
f 79/85/59 77/86/59 74/86/59
f 76/85/59 79/85/59 74/86/59
f 76/85/60 74/86/60 73/87/60
f 75/88/60 76/85/60 73/87/60
f 75/89/61 73/90/61 78/90/61
f 80/89/61 75/89/61 78/90/61
f 80/89/62 78/90/62 77/86/62
f 79/85/62 80/89/62 77/86/62
f 73/91/63 74/86/63 77/86/63
f 78/91/63 73/91/63 77/86/63
f 76/86/63 75/91/63 80/91/63
f 79/86/63 76/86/63 80/91/63
o Ventral3
v 0.000000 0.000000 1.000000
v 0.000000 0.000000 0.500000
v 0.000000 -0.312500 1.000000
v 0.000000 -0.312500 0.500000
v 0.000000 0.000000 0.500000
v 0.000000 0.000000 1.000000
v 0.000000 -0.312500 0.500000
v 0.000000 -0.312500 1.000000
vn -0.0000 -0.0000 -1.0000
vn 1.0000 -0.0000 -0.0000
vn -0.0000 -0.0000 1.0000
vn -1.0000 -0.0000 -0.0000
vn -0.0000 -0.0000 -0.0000
vt 0.875000 0.421875
vt 0.875000 0.500000
vt 0.750000 0.500000
vt 0.750000 0.421875
vt 1.000000 0.421875
vt 1.000000 0.500000
vt 0.875000 0.625000
s 0
f 87/92/64 85/93/64 82/93/64
f 84/92/64 87/92/64 82/93/64
f 84/92/65 82/93/65 81/94/65
f 83/95/65 84/92/65 81/94/65
f 83/96/66 81/97/66 86/97/66
f 88/96/66 83/96/66 86/97/66
f 88/96/67 86/97/67 85/93/67
f 87/92/67 88/96/67 85/93/67
f 81/98/68 82/93/68 85/93/68
f 86/98/68 81/98/68 85/93/68
f 84/93/68 83/98/68 88/98/68
f 87/93/68 84/93/68 88/98/68
o Dorsal4
v 0.000625 0.515625 1.500000
v 0.000625 0.515625 1.000000
v 0.000625 0.265625 1.500000
v 0.000625 0.265625 1.000000
v 0.000625 0.515625 1.000000
v 0.000625 0.515625 1.500000
v 0.000625 0.265625 1.000000
v 0.000625 0.265625 1.500000
vn -0.0000 -0.0000 -1.0000
vn 1.0000 -0.0000 -0.0000
vn -0.0000 -0.0000 1.0000
vn -1.0000 -0.0000 -0.0000
vn -0.0000 -0.0000 -0.0000
vt 0.875000 0.640625
vt 0.875000 0.703125
vt 0.750000 0.703125
vt 0.750000 0.640625
vt 1.000000 0.640625
vt 1.000000 0.703125
vt 0.875000 0.828125
s 0
f 95/99/69 93/100/69 90/100/69
f 92/99/69 95/99/69 90/100/69
f 92/99/70 90/100/70 89/101/70
f 91/102/70 92/99/70 89/101/70
f 91/103/71 89/104/71 94/104/71
f 96/103/71 91/103/71 94/104/71
f 96/103/72 94/104/72 93/100/72
f 95/99/72 96/103/72 93/100/72
f 89/105/73 90/100/73 93/100/73
f 94/105/73 89/105/73 93/100/73
f 92/100/73 91/105/73 96/105/73
f 95/100/73 92/100/73 96/105/73
o Ventral4
v 0.000625 0.015625 1.500000
v 0.000625 0.015625 1.000000
v 0.000625 -0.234375 1.500000
v 0.000625 -0.234375 1.000000
v 0.000625 0.015625 1.000000
v 0.000625 0.015625 1.500000
v 0.000625 -0.234375 1.000000
v 0.000625 -0.234375 1.500000
vn -0.0000 -0.0000 -1.0000
vn 1.0000 -0.0000 -0.0000
vn -0.0000 -0.0000 1.0000
vn -1.0000 -0.0000 -0.0000
vn -0.0000 -0.0000 -0.0000
vt 0.875000 0.578125
vt 0.875000 0.640625
vt 0.750000 0.640625
vt 0.750000 0.578125
vt 1.000000 0.578125
vt 1.000000 0.640625
vt 0.875000 0.765625
s 0
f 103/106/74 101/107/74 98/107/74
f 100/106/74 103/106/74 98/107/74
f 100/106/75 98/107/75 97/108/75
f 99/109/75 100/106/75 97/108/75
f 99/110/76 97/111/76 102/111/76
f 104/110/76 99/110/76 102/111/76
f 104/110/77 102/111/77 101/107/77
f 103/106/77 104/110/77 101/107/77
f 97/112/78 98/107/78 101/107/78
f 102/112/78 97/112/78 101/107/78
f 100/107/78 99/112/78 104/112/78
f 103/107/78 100/107/78 104/112/78
o Tail
v 0.000000 0.531250 2.500000
v 0.000000 0.531250 1.312500
v 0.000000 -0.281250 2.500000
v 0.000000 -0.281250 1.312500
v 0.000000 0.531250 1.312500
v 0.000000 0.531250 2.500000
v 0.000000 -0.281250 1.312500
v 0.000000 -0.281250 2.500000
vn -0.0000 -0.0000 -1.0000
vn 1.0000 -0.0000 -0.0000
vn -0.0000 -0.0000 1.0000
vn -1.0000 -0.0000 -0.0000
vn -0.0000 -0.0000 -0.0000
vt 0.703125 0.000000
vt 0.703125 0.203125
vt 0.406250 0.203125
vt 0.406250 0.000000
vt 1.000000 0.000000
vt 1.000000 0.203125
vt 0.703125 0.500000
s 0
f 111/113/79 109/114/79 106/114/79
f 108/113/79 111/113/79 106/114/79
f 108/113/80 106/114/80 105/115/80
f 107/116/80 108/113/80 105/115/80
f 107/117/81 105/118/81 110/118/81
f 112/117/81 107/117/81 110/118/81
f 112/117/82 110/118/82 109/114/82
f 111/113/82 112/117/82 109/114/82
f 105/119/83 106/114/83 109/114/83
f 110/119/83 105/119/83 109/114/83
f 108/114/83 107/119/83 112/119/83
f 111/114/83 108/114/83 112/119/83
o Body5
v 0.093750 0.218750 2.000000
v 0.093750 0.218750 1.500000
v 0.093750 0.031250 2.000000
v 0.093750 0.031250 1.500000
v -0.093750 0.218750 1.500000
v -0.093750 0.218750 2.000000
v -0.093750 0.031250 1.500000
v -0.093750 0.031250 2.000000
vn -0.0000 -0.0000 -1.0000
vn 1.0000 -0.0000 -0.0000
vn -0.0000 -0.0000 1.0000
vn -1.0000 -0.0000 -0.0000
vn -0.0000 1.0000 -0.0000
vn -0.0000 -1.0000 -0.0000
vt 0.171875 0.046875
vt 0.171875 0.093750
vt 0.125000 0.093750
vt 0.125000 0.046875
vt 0.000000 0.093750
vt 0.000000 0.046875
vt 0.343750 0.046875
vt 0.343750 0.093750
vt 0.296875 0.093750
vt 0.296875 0.046875
vt 0.125000 0.218750
vt 0.171875 0.218750
vt 0.218750 0.218750
vt 0.218750 0.093750
s 0
f 119/120/84 117/121/84 114/122/84
f 116/123/84 119/120/84 114/122/84
f 116/123/85 114/122/85 113/124/85
f 115/125/85 116/123/85 113/124/85
f 115/126/86 113/127/86 118/128/86
f 120/129/86 115/126/86 118/128/86
f 120/129/87 118/128/87 117/121/87
f 119/120/87 120/129/87 117/121/87
f 113/130/88 114/122/88 117/121/88
f 118/131/88 113/130/88 117/121/88
f 116/121/89 115/131/89 120/132/89
f 119/133/89 116/121/89 120/132/89
o Body6
v 0.062500 0.171875 2.187500
v 0.062500 0.171875 2.000000
v 0.062500 0.046875 2.187500
v 0.062500 0.046875 2.000000
v -0.062500 0.171875 2.000000
v -0.062500 0.171875 2.187500
v -0.062500 0.046875 2.000000
v -0.062500 0.046875 2.187500
vn -0.0000 -0.0000 -1.0000
vn 1.0000 -0.0000 -0.0000
vn -0.0000 -0.0000 1.0000
vn -1.0000 -0.0000 -0.0000
vn -0.0000 1.0000 -0.0000
vn -0.0000 -1.0000 -0.0000
vt 0.750000 0.921875
vt 0.750000 0.953125
vt 0.718750 0.953125
vt 0.718750 0.921875
vt 0.671875 0.953125
vt 0.671875 0.921875
vt 0.828125 0.921875
vt 0.828125 0.953125
vt 0.796875 0.953125
vt 0.796875 0.921875
vt 0.718750 1.000000
vt 0.750000 1.000000
vt 0.781250 1.000000
vt 0.781250 0.953125
s 0
f 127/134/90 125/135/90 122/136/90
f 124/137/90 127/134/90 122/136/90
f 124/137/91 122/136/91 121/138/91
f 123/139/91 124/137/91 121/138/91
f 123/140/92 121/141/92 126/142/92
f 128/143/92 123/140/92 126/142/92
f 128/143/93 126/142/93 125/135/93
f 127/134/93 128/143/93 125/135/93
f 121/144/94 122/136/94 125/135/94
f 126/145/94 121/144/94 125/135/94
f 124/135/95 123/145/95 128/146/95
f 127/147/95 124/135/95 128/146/95
o Body4
v 0.093750 0.265625 1.500000
v 0.093750 0.265625 1.000000
v 0.093750 0.015625 1.500000
v 0.093750 0.015625 1.000000
v -0.093750 0.265625 1.000000
v -0.093750 0.265625 1.500000
v -0.093750 0.015625 1.000000
v -0.093750 0.015625 1.500000
vn -0.0000 -0.0000 -1.0000
vn 1.0000 -0.0000 -0.0000
vn -0.0000 -0.0000 1.0000
vn -1.0000 -0.0000 -0.0000
vn -0.0000 1.0000 -0.0000
vn -0.0000 -1.0000 -0.0000
vt 0.171875 0.218750
vt 0.171875 0.281250
vt 0.125000 0.281250
vt 0.125000 0.218750
vt 0.000000 0.281250
vt 0.000000 0.218750
vt 0.343750 0.218750
vt 0.343750 0.281250
vt 0.296875 0.281250
vt 0.296875 0.218750
vt 0.125000 0.406250
vt 0.171875 0.406250
vt 0.218750 0.406250
vt 0.218750 0.281250
s 0
f 135/148/96 133/149/96 130/150/96
f 132/151/96 135/148/96 130/150/96
f 132/151/97 130/150/97 129/152/97
f 131/153/97 132/151/97 129/152/97
f 131/154/98 129/155/98 134/156/98
f 136/157/98 131/154/98 134/156/98
f 136/157/99 134/156/99 133/149/99
f 135/148/99 136/157/99 133/149/99
f 129/158/100 130/150/100 133/149/100
f 134/159/100 129/158/100 133/149/100
f 132/149/101 131/159/101 136/160/101
f 135/161/101 132/149/101 136/160/101
o Body3
v 0.093750 0.312500 1.000000
v 0.093750 0.312500 0.500000
v 0.093750 0.000000 1.000000
v 0.093750 0.000000 0.500000
v -0.093750 0.312500 0.500000
v -0.093750 0.312500 1.000000
v -0.093750 0.000000 0.500000
v -0.093750 0.000000 1.000000
vn -0.0000 -0.0000 -1.0000
vn 1.0000 -0.0000 -0.0000
vn -0.0000 -0.0000 1.0000
vn -1.0000 -0.0000 -0.0000
vn -0.0000 1.0000 -0.0000
vn -0.0000 -1.0000 -0.0000
vt 0.171875 0.406250
vt 0.171875 0.484375
vt 0.125000 0.484375
vt 0.125000 0.406250
vt 0.000000 0.484375
vt 0.000000 0.406250
vt 0.343750 0.406250
vt 0.343750 0.484375
vt 0.296875 0.484375
vt 0.296875 0.406250
vt 0.125000 0.609375
vt 0.171875 0.609375
vt 0.218750 0.609375
vt 0.218750 0.484375
s 0
f 143/162/102 141/163/102 138/164/102
f 140/165/102 143/162/102 138/164/102
f 140/165/103 138/164/103 137/166/103
f 139/167/103 140/165/103 137/166/103
f 139/168/104 137/169/104 142/170/104
f 144/171/104 139/168/104 142/170/104
f 144/171/105 142/170/105 141/163/105
f 143/162/105 144/171/105 141/163/105
f 137/172/106 138/164/106 141/163/106
f 142/173/106 137/172/106 141/163/106
f 140/163/107 139/173/107 144/174/107
f 143/175/107 140/163/107 144/174/107
o Body2
v 0.125625 0.313125 0.500625
v 0.125625 0.313125 -0.000625
v 0.125625 -0.000625 0.500625
v 0.125625 -0.000625 -0.000625
v -0.125625 0.313125 -0.000625
v -0.125625 0.313125 0.500625
v -0.125625 -0.000625 -0.000625
v -0.125625 -0.000625 0.500625
vn -0.0000 -0.0000 -1.0000
vn 1.0000 -0.0000 -0.0000
vn -0.0000 -0.0000 1.0000
vn -1.0000 -0.0000 -0.0000
vn -0.0000 1.0000 -0.0000
vn -0.0000 -1.0000 -0.0000
vt 0.187500 0.609375
vt 0.187500 0.687500
vt 0.125000 0.687500
vt 0.125000 0.609375
vt 0.000000 0.687500
vt 0.000000 0.609375
vt 0.375000 0.609375
vt 0.375000 0.687500
vt 0.312500 0.687500
vt 0.312500 0.609375
vt 0.125000 0.812500
vt 0.187500 0.812500
vt 0.250000 0.812500
vt 0.250000 0.687500
s 0
f 151/176/108 149/177/108 146/178/108
f 148/179/108 151/176/108 146/178/108
f 148/179/109 146/178/109 145/180/109
f 147/181/109 148/179/109 145/180/109
f 147/182/110 145/183/110 150/184/110
f 152/185/110 147/182/110 150/184/110
f 152/185/111 150/184/111 149/177/111
f 151/176/111 152/185/111 149/177/111
f 145/186/112 146/178/112 149/177/112
f 150/187/112 145/186/112 149/177/112
f 148/177/113 147/187/113 152/188/113
f 151/189/113 148/177/113 152/188/113
